<?xml version="1.0" encoding="UTF-8" standalone="no"?>
<!-- Created with Inkscape (http://www.inkscape.org/) -->

<svg
   xmlns:dc="http://purl.org/dc/elements/1.1/"
   xmlns:cc="http://creativecommons.org/ns#"
   xmlns:rdf="http://www.w3.org/1999/02/22-rdf-syntax-ns#"
   xmlns:svg="http://www.w3.org/2000/svg"
   xmlns="http://www.w3.org/2000/svg"
   xmlns:xlink="http://www.w3.org/1999/xlink"
   xmlns:sodipodi="http://sodipodi.sourceforge.net/DTD/sodipodi-0.dtd"
   xmlns:inkscape="http://www.inkscape.org/namespaces/inkscape"
   id="svg3220"
   version="1.1"
   inkscape:version="0.48.1 r9760"
   width="900"
   height="900"
   xml:space="preserve"
   sodipodi:docname="polka-duck.svg"><metadata
     id="metadata3226"><rdf:RDF><cc:Work
         rdf:about=""><dc:format>image/svg+xml</dc:format><dc:type
           rdf:resource="http://purl.org/dc/dcmitype/StillImage" /></cc:Work></rdf:RDF></metadata><defs
     id="defs3224"><linearGradient
       id="linearGradient4361"><stop
         style="stop-color:#da7e46;stop-opacity:1;"
         offset="0"
         id="stop4363" /><stop
         style="stop-color:#750000;stop-opacity:1;"
         offset="1"
         id="stop4365" /></linearGradient><linearGradient
       id="linearGradient4160"><stop
         style="stop-color:#ffffff;stop-opacity:1;"
         offset="0"
         id="stop4162" /><stop
         style="stop-color:#ffffff;stop-opacity:0.76335877;"
         offset="1"
         id="stop4164" /></linearGradient><linearGradient
       id="linearGradient4138"
       spreadMethod="pad"
       gradientTransform="matrix(36.111328,0,0,-36.111328,359.84473,330.16602)"
       gradientUnits="userSpaceOnUse"
       y2="0"
       x2="1"
       y1="0"
       x1="0"><stop
         id="stop4140"
         offset="0"
         style="stop-color:#ec202f;stop-opacity:0.94117647;" /><stop
         id="stop4142"
         offset="0.56624514"
         style="stop-color:#ed4b4f;stop-opacity:1;" /><stop
         id="stop4144"
         offset="0.69101101"
         style="stop-color:#dd6666;stop-opacity:1;" /><stop
         id="stop4146"
         offset="1"
         style="stop-color:#ee7777;stop-opacity:1;" /></linearGradient><clipPath
       clipPathUnits="userSpaceOnUse"
       id="clipPath3234"><path
         d="M 0,720 720,720 720,0 0,0 0,720 z"
         id="path3236" /></clipPath><clipPath
       clipPathUnits="userSpaceOnUse"
       id="clipPath3244"><path
         d="m 200.978,431.179 c 0,83.87 67.976,151.846 151.846,151.846 83.864,0 151.867,-67.976 151.867,-151.846 0,-83.857 -68.003,-151.847 -151.867,-151.847 -83.87,0 -151.846,67.99 -151.846,151.847"
         id="path3246" /></clipPath><linearGradient
       x1="0"
       y1="0"
       x2="1"
       y2="0"
       gradientUnits="userSpaceOnUse"
       gradientTransform="matrix(38.754883,0,0,-38.754883,310.20703,323.5293)"
       spreadMethod="pad"
       id="linearGradient3280"
       xlink:href="#linearGradient3304"><stop
         style="stop-color:#ee7777;stop-opacity:1;"
         offset="0"
         id="stop3282" /><stop
         style="stop-color:#dd6666;stop-opacity:1;"
         offset="0.30043817"
         id="stop3284" /><stop
         style="stop-color:#ed4b4f;stop-opacity:1;"
         offset="0.72105163"
         id="stop3286" /><stop
         style="stop-color:#ec202f;stop-opacity:0.94117647;"
         offset="1"
         id="stop3288" /></linearGradient><linearGradient
       x1="0"
       y1="0"
       x2="1"
       y2="0"
       gradientUnits="userSpaceOnUse"
       gradientTransform="matrix(36.111328,0,0,-36.111328,359.84473,330.16602)"
       spreadMethod="pad"
       id="linearGradient3304"><stop
         style="stop-color:#ec202f;stop-opacity:0.94117647;"
         offset="0"
         id="stop3306" /><stop
         style="stop-color:#ed4b4f;stop-opacity:1;"
         offset="0.56624514"
         id="stop3308" /><stop
         style="stop-color:#dd6666;stop-opacity:1;"
         offset="0.69101101"
         id="stop3310" /><stop
         style="stop-color:#ee7777;stop-opacity:1;"
         offset="1"
         id="stop3312" /></linearGradient><linearGradient
       x1="0"
       y1="0"
       x2="1"
       y2="0"
       gradientUnits="userSpaceOnUse"
       gradientTransform="matrix(24.898437,0,0,-24.898437,339.63672,325.53418)"
       spreadMethod="pad"
       id="linearGradient3328"
       xlink:href="#linearGradient3280"><stop
         style="stop-color:#ec202f;stop-opacity:0.94117647;"
         offset="0"
         id="stop3330" /><stop
         style="stop-color:#ec202f;stop-opacity:0.94117647;"
         offset="1"
         id="stop3332" /></linearGradient><linearGradient
       inkscape:collect="always"
       xlink:href="#linearGradient4138"
       id="linearGradient4148"
       gradientUnits="userSpaceOnUse"
       gradientTransform="matrix(36.111328,0,0,-36.111328,359.84473,330.16602)"
       spreadMethod="pad"
       x1="0"
       y1="0"
       x2="1"
       y2="0" /><linearGradient
       inkscape:collect="always"
       xlink:href="#linearGradient4160"
       id="linearGradient4166"
       x1="398.71179"
       y1="495.98489"
       x2="414.6217"
       y2="495.98489"
       gradientUnits="userSpaceOnUse" /><linearGradient
       inkscape:collect="always"
       xlink:href="#linearGradient4160-3"
       id="linearGradient4166-6"
       x1="398.71179"
       y1="495.98489"
       x2="414.6217"
       y2="495.98489"
       gradientUnits="userSpaceOnUse" /><linearGradient
       id="linearGradient4160-3"><stop
         style="stop-color:#ffffff;stop-opacity:1;"
         offset="0"
         id="stop4162-4" /><stop
         style="stop-color:#ffffff;stop-opacity:0.76335877;"
         offset="1"
         id="stop4164-8" /></linearGradient><linearGradient
       y2="495.98489"
       x2="414.6217"
       y1="495.98489"
       x1="398.71179"
       gradientUnits="userSpaceOnUse"
       id="linearGradient4183"
       xlink:href="#linearGradient4160-3"
       inkscape:collect="always" /><linearGradient
       inkscape:collect="always"
       xlink:href="#linearGradient4160-1"
       id="linearGradient4166-65"
       x1="398.71179"
       y1="495.98489"
       x2="414.6217"
       y2="495.98489"
       gradientUnits="userSpaceOnUse" /><linearGradient
       id="linearGradient4160-1"><stop
         style="stop-color:#ffffff;stop-opacity:1;"
         offset="0"
         id="stop4162-7" /><stop
         style="stop-color:#ffffff;stop-opacity:0.76335877;"
         offset="1"
         id="stop4164-1" /></linearGradient><linearGradient
       y2="495.98489"
       x2="414.6217"
       y1="495.98489"
       x1="398.71179"
       gradientUnits="userSpaceOnUse"
       id="linearGradient4183-2"
       xlink:href="#linearGradient4160-1"
       inkscape:collect="always" /><linearGradient
       inkscape:collect="always"
       xlink:href="#linearGradient4160-5"
       id="linearGradient4166-1"
       x1="398.71179"
       y1="495.98489"
       x2="414.6217"
       y2="495.98489"
       gradientUnits="userSpaceOnUse" /><linearGradient
       id="linearGradient4160-5"><stop
         style="stop-color:#ffffff;stop-opacity:1;"
         offset="0"
         id="stop4162-5" /><stop
         style="stop-color:#ffffff;stop-opacity:0.76335877;"
         offset="1"
         id="stop4164-0" /></linearGradient><linearGradient
       y2="495.98489"
       x2="414.6217"
       y1="495.98489"
       x1="398.71179"
       gradientUnits="userSpaceOnUse"
       id="linearGradient4183-5"
       xlink:href="#linearGradient4160-5"
       inkscape:collect="always" /><linearGradient
       inkscape:collect="always"
       xlink:href="#linearGradient4160-38"
       id="linearGradient4166-2"
       x1="398.71179"
       y1="495.98489"
       x2="414.6217"
       y2="495.98489"
       gradientUnits="userSpaceOnUse" /><linearGradient
       id="linearGradient4160-38"><stop
         style="stop-color:#ffffff;stop-opacity:1;"
         offset="0"
         id="stop4162-3" /><stop
         style="stop-color:#ffffff;stop-opacity:0.76335877;"
         offset="1"
         id="stop4164-11" /></linearGradient><linearGradient
       y2="495.98489"
       x2="414.6217"
       y1="495.98489"
       x1="398.71179"
       gradientUnits="userSpaceOnUse"
       id="linearGradient4183-8"
       xlink:href="#linearGradient4160-38"
       inkscape:collect="always" /><linearGradient
       inkscape:collect="always"
       xlink:href="#linearGradient4160-0"
       id="linearGradient4166-7"
       x1="398.71179"
       y1="495.98489"
       x2="414.6217"
       y2="495.98489"
       gradientUnits="userSpaceOnUse" /><linearGradient
       id="linearGradient4160-0"><stop
         style="stop-color:#ffffff;stop-opacity:1;"
         offset="0"
         id="stop4162-9" /><stop
         style="stop-color:#ffffff;stop-opacity:0.76335877;"
         offset="1"
         id="stop4164-3" /></linearGradient><linearGradient
       y2="495.98489"
       x2="414.6217"
       y1="495.98489"
       x1="398.71179"
       gradientUnits="userSpaceOnUse"
       id="linearGradient4183-6"
       xlink:href="#linearGradient4160-0"
       inkscape:collect="always" /><linearGradient
       inkscape:collect="always"
       xlink:href="#linearGradient4160-16"
       id="linearGradient4166-74"
       x1="398.71179"
       y1="495.98489"
       x2="414.6217"
       y2="495.98489"
       gradientUnits="userSpaceOnUse" /><linearGradient
       id="linearGradient4160-16"><stop
         style="stop-color:#ffffff;stop-opacity:1;"
         offset="0"
         id="stop4162-1" /><stop
         style="stop-color:#ffffff;stop-opacity:0.76335877;"
         offset="1"
         id="stop4164-4" /></linearGradient><linearGradient
       y2="495.98489"
       x2="414.6217"
       y1="495.98489"
       x1="398.71179"
       gradientUnits="userSpaceOnUse"
       id="linearGradient4183-3"
       xlink:href="#linearGradient4160-16"
       inkscape:collect="always" /><linearGradient
       inkscape:collect="always"
       xlink:href="#linearGradient4160-9"
       id="linearGradient4166-73"
       x1="398.71179"
       y1="495.98489"
       x2="414.6217"
       y2="495.98489"
       gradientUnits="userSpaceOnUse" /><linearGradient
       id="linearGradient4160-9"><stop
         style="stop-color:#ffffff;stop-opacity:1;"
         offset="0"
         id="stop4162-8" /><stop
         style="stop-color:#ffffff;stop-opacity:0.76335877;"
         offset="1"
         id="stop4164-16" /></linearGradient><linearGradient
       y2="495.98489"
       x2="414.6217"
       y1="495.98489"
       x1="398.71179"
       gradientUnits="userSpaceOnUse"
       id="linearGradient4183-0"
       xlink:href="#linearGradient4160-9"
       inkscape:collect="always" /><linearGradient
       inkscape:collect="always"
       xlink:href="#linearGradient4160-168"
       id="linearGradient4166-62"
       x1="398.71179"
       y1="495.98489"
       x2="414.6217"
       y2="495.98489"
       gradientUnits="userSpaceOnUse" /><linearGradient
       id="linearGradient4160-168"><stop
         style="stop-color:#ffffff;stop-opacity:1;"
         offset="0"
         id="stop4162-49" /><stop
         style="stop-color:#ffffff;stop-opacity:0.76335877;"
         offset="1"
         id="stop4164-6" /></linearGradient><linearGradient
       y2="495.98489"
       x2="414.6217"
       y1="495.98489"
       x1="398.71179"
       gradientUnits="userSpaceOnUse"
       id="linearGradient4183-9"
       xlink:href="#linearGradient4160-168"
       inkscape:collect="always" /><linearGradient
       inkscape:collect="always"
       xlink:href="#linearGradient4160-2"
       id="linearGradient4166-69"
       x1="398.71179"
       y1="495.98489"
       x2="414.6217"
       y2="495.98489"
       gradientUnits="userSpaceOnUse" /><linearGradient
       id="linearGradient4160-2"><stop
         style="stop-color:#ffffff;stop-opacity:1;"
         offset="0"
         id="stop4162-41" /><stop
         style="stop-color:#ffffff;stop-opacity:0.76335877;"
         offset="1"
         id="stop4164-19" /></linearGradient><linearGradient
       y2="495.98489"
       x2="414.6217"
       y1="495.98489"
       x1="398.71179"
       gradientUnits="userSpaceOnUse"
       id="linearGradient4183-4"
       xlink:href="#linearGradient4160-2"
       inkscape:collect="always" /><linearGradient
       inkscape:collect="always"
       xlink:href="#linearGradient4361"
       id="linearGradient4367"
       x1="638.86365"
       y1="401.59091"
       x2="658.63635"
       y2="398.86365"
       gradientUnits="userSpaceOnUse" /></defs><sodipodi:namedview
     pagecolor="#ffffff"
     bordercolor="#666666"
     borderopacity="1"
     objecttolerance="10"
     gridtolerance="10"
     guidetolerance="10"
     inkscape:pageopacity="0"
     inkscape:pageshadow="2"
     inkscape:window-width="1366"
     inkscape:window-height="744"
     id="namedview3222"
     showgrid="false"
     inkscape:zoom="5.8665792"
     inkscape:cx="523.41362"
     inkscape:cy="316.96517"
     inkscape:window-x="0"
     inkscape:window-y="24"
     inkscape:window-maximized="1"
     inkscape:current-layer="g3232" /><g
     id="g3228"
     inkscape:groupmode="layer"
     inkscape:label="nduck.v104"
     transform="matrix(1.25,0,0,-1.25,0,900)"><g
       id="g3230"><g
         id="g3232"
         clip-path="url(#clipPath3234)"><path
           d="m 200.978,431.179 c 0,83.87 67.976,151.846 151.846,151.846 83.864,0 151.867,-67.976 151.867,-151.846 0,-83.857 -68.003,-151.847 -151.867,-151.847 -83.87,0 -151.846,67.99 -151.846,151.847"
           style="fill:#ec2027;fill-opacity:1;fill-rule:nonzero;stroke:none"
           id="path3238" /><g
           id="g3240"><g
             id="g3242"
             clip-path="url(#clipPath3244)"><path
               d="m 404.477,225.273 c -4.704,21.616 -31.999,70.561 -42.349,91.26 -10.343,20.699 -20.706,49.875 -15.996,68.701 0.847,3.418 -8.969,29.511 -6.139,31.35 21.957,14.335 27.754,-1.559 36.552,4.867 4.539,3.322 10.664,-2.734 12.25,2.762 5.64,19.756 -7.848,54.182 -22.894,69.234 -4.908,4.908 -12.448,7.985 -20.959,9.625 -3.26,4.471 -8.531,8.764 -15.996,12.729 -8.34,4.429 -26.427,10.281 -35.82,11.84 -6.494,1.066 -7.957,-0.752 -10.732,-1.21 2.584,-0.226 14.868,-6.296 17.267,-6.652 -2.399,-1.613 -9.427,0.075 -13.904,-1.934 -2.263,-1.019 -3.951,-4.902 -3.938,-6.734 12.825,1.292 32.827,0.035 44.639,-5.222 -9.406,-1.067 -23.7,-2.256 -29.853,-5.496 -17.876,-9.42 -25.757,-31.412 -21.061,-57.764 4.717,-26.339 25.416,-122.322 32.006,-154.315 6.59,-32.005 -14.123,-52.698 -27.289,-58.337 l 14.123,-0.951 -4.717,-10.356 c 16.939,-1.873 35.759,3.76 35.759,3.76 -3.767,-10.343 -29.169,-14.117 -29.169,-14.117 0,0 12.236,-3.752 31.992,3.774 19.756,7.526 31.985,12.229 31.985,12.229 l 9.42,-24.459 17.883,17.87 7.526,-18.82 c 0,0 14.11,4.71 9.414,26.366"
               style="fill:#cccdce;fill-opacity:1;fill-rule:nonzero;stroke:none"
               id="path3248" /><path
               d="m 408.605,229.396 c -4.696,21.635 -31.992,70.581 -42.348,91.28 -10.35,20.699 -20.699,49.875 -15.996,68.687 0.861,3.418 0.882,17.405 3.718,19.264 21.958,14.335 20.399,0.478 29.197,6.904 4.539,3.309 8.169,7.315 9.748,12.818 5.653,19.762 -7.834,54.181 -22.894,69.241 -4.901,4.901 -12.434,7.984 -20.938,9.611 -3.281,4.485 -8.552,8.778 -16.017,12.742 -14.068,7.479 -31.513,10.459 -47.667,7.527 2.584,-0.24 8.497,-5.578 10.883,-5.934 -3.609,-2.44 -13.193,-2.126 -13.132,-7.554 12.831,1.279 26.893,-0.752 38.719,-6.002 -9.406,-1.066 -18.156,-3.39 -24.309,-6.63 -17.882,-9.407 -22.586,-28.226 -17.882,-54.585 4.703,-26.353 25.416,-122.329 31.992,-154.322 6.583,-31.992 -14.11,-52.691 -27.289,-58.338 l 14.123,-0.936 -4.703,-10.37 c 16.925,-1.866 35.758,3.773 35.758,3.773 -3.766,-10.363 -29.182,-14.109 -29.182,-14.109 0,0 12.236,-3.774 32.006,3.773 19.762,7.52 31.992,12.216 31.992,12.216 l 9.406,-24.459 17.876,17.876 7.54,-18.819 c 0,0 14.109,4.71 9.399,26.346"
               style="fill:#ffffff;fill-opacity:1;fill-rule:nonzero;stroke:none"
               id="path3250" /><path
               d="m 300.42,445.459 c 0,5.455 4.423,9.885 9.892,9.885 5.455,0 9.871,-4.43 9.871,-9.885 0,-5.469 -4.416,-9.885 -9.871,-9.885 -5.469,0 -9.892,4.416 -9.892,9.885"
               style="fill:#0071bc;fill-opacity:1;fill-rule:nonzero;stroke:none"
               id="path3252" /><path
               d="m 312.13,448.754 c 0,1.422 1.148,2.57 2.563,2.57 1.415,0 2.571,-1.148 2.571,-2.57 0,-1.415 -1.156,-2.57 -2.571,-2.57 -1.415,0 -2.563,1.155 -2.563,2.57"
               style="fill:#ffffff;fill-opacity:1;fill-rule:nonzero;stroke:none"
               id="path3254" /><path
               d="m 367.877,451.324 c 0,4.676 3.808,8.484 8.49,8.484 4.696,0 8.49,-3.808 8.49,-8.484 0,-4.703 -3.794,-8.504 -8.49,-8.504 -4.682,0 -8.49,3.801 -8.49,8.504"
               style="fill:#0071bc;fill-opacity:1;fill-rule:nonzero;stroke:none"
               id="path3256" /><path
               d="m 377.939,454.141 c 0,1.216 0.992,2.201 2.202,2.201 1.223,0 2.194,-0.985 2.194,-2.201 0,-1.217 -0.971,-2.195 -2.194,-2.195 -1.21,0 -2.202,0.978 -2.202,2.195"
               style="fill:#ffffff;fill-opacity:1;fill-rule:nonzero;stroke:none"
               id="path3258" /><path
               d="m 313.114,474.102 c 0,0 -7.451,3.363 -14.683,-1.183 -7.233,-4.546 -6.973,-9.201 -6.973,-9.201 0,0 -3.842,8.572 6.412,12.762 10.254,4.211 15.244,-2.378 15.244,-2.378"
               style="fill:#188dcd;fill-opacity:1;fill-rule:nonzero;stroke:none"
               id="path3260" /><path
               d="m 381.48,474.771 c 0,0 -5.352,3.063 -9.501,3.015 -8.539,-0.116 -10.87,-3.89 -10.87,-3.89 0,0 1.436,8.99 12.36,7.192 5.906,-0.984 8.011,-6.317 8.011,-6.317"
               style="fill:#188dcd;fill-opacity:1;fill-rule:nonzero;stroke:none"
               id="path3262" /></g></g><path
           d="m 205.192,430.01 c 0,82.195 66.62,148.804 148.808,148.804 82.188,0 148.825,-66.609 148.825,-148.804 0,-82.182 -66.637,-148.819 -148.825,-148.819 -82.188,0 -148.808,66.637 -148.808,148.819 z"
           style="fill:none;stroke:#ffffff;stroke-opacity:1;stroke-width:20.708;stroke-linecap:butt;stroke-linejoin:miter;stroke-miterlimit:4;stroke-dasharray:none"
           id="path3264" /><path
           d="m 338.599,407.52 c 0.998,6.056 16.652,17.513 27.733,18.21 11.102,0.698 14.561,-0.54991 23.823,1.66409 9.263,2.215 17.87357,2.29071 39.751,5.01803 19.45185,5.21211 36.8476,-10.75732 14.882,-10.75732 -9.79964,0 -31.589,-9.14161 -48.043,-9.14161 -16.447,-4.922 -26.414,0.88481 -31.883,-7.20819 -4.341,-6.426 -0.882,-2.14009 18.758,-3.97209 26.537,-2.454 52.11737,9.3581 54.91937,1.7091 2.817,-7.649 -22.94737,-13.52419 -38.54037,-13.83219 -15.586,-0.294 -47.011,-3.87982 -51.707,-0.59882 -4.71,3.282 -11.006,10.924 -9.693,18.909"
           style="fill:#fdd204;fill-opacity:1;fill-rule:nonzero;stroke:none"
           id="path3266"
           inkscape:connector-curvature="0"
           sodipodi:nodetypes="ccccsccccccc" /><g
           id="g3268"><g
             id="g3270"><g
               id="g3276"><g
                 id="g3278"><path
                   d="m 347.15,332.338 c 0,0 -36.141,19.277 -36.743,11.457 -0.608,-7.834 0,-39.758 4.211,-42.178 4.225,-2.406 34.344,15.661 34.344,15.661 l -1.812,15.06 z"
                   style="fill:url(#linearGradient3280);stroke:none;fill-opacity:1.0"
                   id="path3290" /></g></g></g></g><g
           id="g3292"><g
             id="g3294"><g
               id="g3300"><g
                 id="g3302"><path
                   d="m 361.007,333.555 c 0,0 24.705,18.675 30.126,17.472 5.421,-1.216 6.624,-39.764 1.798,-41.589 -4.82,-1.792 -33.086,9.789 -33.086,9.789 l 1.162,14.328 z"
                   style="fill:url(#linearGradient4148);stroke:none;fill-opacity:1"
                   id="path3314" /></g></g></g></g><g
           id="g3316"><g
             id="g3318"><g
               id="g3324"><g
                 id="g3326"><path
                   d="m 339.925,332.338 c 0,-12.64 -1.805,-18.074 3.616,-19.271 5.421,-1.21 15.654,0 19.277,2.407 3.61,2.413 0.595,18.669 -0.608,21.697 -1.203,3.001 -22.285,0.588 -22.285,-4.833"
                   style="fill:url(#linearGradient3328);stroke:none;fill-opacity:1.0"
                   id="path3334" /></g></g></g></g><path
           d="m 201.596,429.552 c 0,83.87 67.987,151.853 151.843,151.853 83.857,0 151.847,-67.983 151.847,-151.853 0,-83.864 -67.99,-151.847 -151.847,-151.847 -83.856,0 -151.843,67.983 -151.843,151.847 z"
           style="fill:none;stroke:#ec2027;stroke-opacity:1;stroke-width:15.496;stroke-linecap:butt;stroke-linejoin:miter;stroke-miterlimit:4;stroke-dasharray:none"
           id="path3336" /><text
           transform="matrix(0.88888889,0,0,-1,22.7065,155.0947)"
           id="text3338"><tspan
             style="fill:#000000;fill-opacity:1;fill-rule:nonzero;stroke:none;font-family:Century Gothic;font-variant:normal;font-weight:normal;font-stretch:normal;font-size:113.4;writing-mode:lr;-inkscape-font-specification:CenturyGothic"
             x="0 84.3696 153.3168 226.6866"
             y="0"
             sodipodi:role="line"
             id="tspan3340">Duck</tspan></text>
<path
           d="m 54.56,155.095 c 9.025,0 16.041,1.475 21.047,4.428 5.006,2.954 9.075,7.53 12.21,13.731 3.135,6.2 4.702,13.379 4.702,21.535 0,9.448 -1.977,17.587 -5.933,24.415 -3.955,6.828 -9.445,11.626 -16.468,14.394 -4.891,1.956 -12.752,2.934 -23.582,2.934 l -15.017,0 0,-81.437 23.041,0 z m -16.103,73.437 5.123,0 c 10.41,0 17.881,-0.774 22.415,-2.322 6.042,-2.064 10.755,-5.881 14.137,-11.447 3.383,-5.567 5.075,-12.277 5.075,-20.129 0,-7.485 -1.561,-13.816 -4.68,-18.995 -3.12,-5.18 -7.406,-8.765 -12.858,-10.755 -3.876,-1.402 -10.822,-2.102 -20.837,-2.102 l -8.375,0 0,65.75 z"
           style="fill:none;stroke:#000000;stroke-opacity:1;stroke-width:2.8;stroke-linecap:butt;stroke-linejoin:miter;stroke-miterlimit:4;stroke-dasharray:none"
           id="path3342" /><path
           d="m 104.528,186.321 c 0,-8.566 0.862,-14.982 2.585,-19.247 1.723,-4.265 4.333,-7.589 7.829,-9.97 3.496,-2.38 7.854,-3.572 13.073,-3.572 5.218,0 9.56,1.192 13.023,3.572 3.463,2.381 6.057,5.677 7.78,9.887 1.723,4.209 2.585,10.468 2.585,18.777 l 0,29.577 -7.062,0 0,-28.155 c 0,-7.537 -0.346,-12.469 -1.035,-14.796 -1.02,-3.4 -2.869,-6.143 -5.548,-8.231 -2.68,-2.088 -5.942,-3.131 -9.787,-3.131 -3.846,0 -7.158,1.072 -9.936,3.214 -2.777,2.143 -4.659,5.062 -5.645,8.757 -0.659,2.586 -0.987,7.315 -0.987,14.187 l 0,28.155 -6.875,0 0,-29.024 z"
           style="fill:none;stroke:#000000;stroke-opacity:1;stroke-width:2.8;stroke-linecap:butt;stroke-linejoin:miter;stroke-miterlimit:4;stroke-dasharray:none"
           id="path3344" /><path
           d="m 212.822,210.322 c -2.298,1.955 -5.095,3.541 -8.394,4.759 -3.299,1.217 -6.72,1.826 -10.265,1.826 -5.645,0 -10.749,-1.404 -15.311,-4.211 -4.563,-2.806 -8.148,-6.713 -10.757,-11.717 -2.61,-5.003 -3.914,-10.423 -3.914,-16.258 0,-8.679 2.789,-16.047 8.369,-22.104 5.58,-6.056 12.603,-9.085 21.071,-9.085 5.514,0 10.429,1.194 14.745,3.578 4.317,2.385 7.754,5.742 10.315,10.069 l -5.464,4.041 c -4.983,-7.042 -11.406,-10.563 -19.273,-10.563 -4.294,0 -8.17,1.071 -11.628,3.211 -3.458,2.141 -6.178,5.149 -8.161,9.024 -1.983,3.875 -2.974,8.007 -2.974,12.4 0,6.754 2.154,12.492 6.465,17.217 4.31,4.723 9.726,7.086 16.249,7.086 8.161,0 14.601,-3.522 19.322,-10.563 l 5.464,3.821 c -1.609,3.024 -3.562,5.514 -5.859,7.469 z"
           style="fill:none;stroke:#000000;stroke-opacity:1;stroke-width:2.8;stroke-linecap:butt;stroke-linejoin:miter;stroke-miterlimit:4;stroke-dasharray:none"
           id="path3346" /><path
           d="m 231.833,155.095 6.875,0 0,27.055 26.866,-27.055 9.822,0 -31.174,31.5 29.424,28.75 -10.099,0 -24.839,-24.269 0,47.519 -6.875,0 0,-83.5 z"
           style="fill:none;stroke:#000000;stroke-opacity:1;stroke-width:2.8;stroke-linecap:butt;stroke-linejoin:miter;stroke-miterlimit:4;stroke-dasharray:none"
           id="path3348" /><text
           transform="matrix(0.88888889,0,0,-1,285.6577,155.0947)"
           id="text3350"><tspan
             style="fill:#000000;fill-opacity:1;fill-rule:nonzero;stroke:none;font-family:Century Gothic;font-variant:normal;font-weight:normal;font-stretch:normal;font-size:113.4;writing-mode:lr;-inkscape-font-specification:CenturyGothic"
             x="0 84.3696 153.3168 226.6866"
             y="0"
             sodipodi:role="line"
             id="tspan3352">Duck</tspan></text>
<path
           d="m 317.511,155.095 c 9.026,0 16.041,1.475 21.047,4.428 5.006,2.954 9.075,7.53 12.21,13.731 3.135,6.2 4.702,13.379 4.702,21.535 0,9.448 -1.977,17.587 -5.932,24.415 -3.955,6.828 -9.446,11.626 -16.469,14.394 -4.891,1.956 -12.752,2.934 -23.582,2.934 l -15.017,0 0,-81.437 23.041,0 z m -16.103,73.437 5.123,0 c 10.41,0 17.882,-0.774 22.415,-2.322 6.042,-2.064 10.755,-5.881 14.137,-11.447 3.383,-5.567 5.075,-12.277 5.075,-20.129 0,-7.485 -1.561,-13.816 -4.68,-18.995 -3.12,-5.18 -7.406,-8.765 -12.857,-10.755 -3.876,-1.402 -10.823,-2.102 -20.838,-2.102 l -8.375,0 0,65.75 z"
           style="fill:none;stroke:#000000;stroke-opacity:1;stroke-width:2.8;stroke-linecap:butt;stroke-linejoin:miter;stroke-miterlimit:4;stroke-dasharray:none"
           id="path3354" /><path
           d="m 367.479,186.321 c 0,-8.566 0.862,-14.982 2.585,-19.247 1.723,-4.265 4.333,-7.589 7.83,-9.97 3.496,-2.38 7.853,-3.572 13.072,-3.572 5.219,0 9.56,1.192 13.023,3.572 3.463,2.381 6.057,5.677 7.781,9.887 1.722,4.209 2.584,10.468 2.584,18.777 l 0,29.577 -7.062,0 0,-28.155 c 0,-7.537 -0.346,-12.469 -1.035,-14.796 -1.02,-3.4 -2.869,-6.143 -5.548,-8.231 -2.68,-2.088 -5.941,-3.131 -9.787,-3.131 -3.846,0 -7.158,1.072 -9.936,3.214 -2.777,2.143 -4.659,5.062 -5.645,8.757 -0.658,2.586 -0.987,7.315 -0.987,14.187 l 0,28.155 -6.875,0 0,-29.024 z"
           style="fill:none;stroke:#000000;stroke-opacity:1;stroke-width:2.8;stroke-linecap:butt;stroke-linejoin:miter;stroke-miterlimit:4;stroke-dasharray:none"
           id="path3356" /><path
           d="m 475.773,210.322 c -2.297,1.955 -5.095,3.541 -8.394,4.759 -3.299,1.217 -6.72,1.826 -10.265,1.826 -5.645,0 -10.749,-1.404 -15.311,-4.211 -4.563,-2.806 -8.148,-6.713 -10.757,-11.717 -2.609,-5.003 -3.914,-10.423 -3.914,-16.258 0,-8.679 2.789,-16.047 8.369,-22.104 5.58,-6.056 12.603,-9.085 21.071,-9.085 5.514,0 10.429,1.194 14.745,3.578 4.317,2.385 7.754,5.742 10.315,10.069 l -5.464,4.041 c -4.982,-7.042 -11.406,-10.563 -19.272,-10.563 -4.294,0 -8.17,1.071 -11.628,3.211 -3.458,2.141 -6.179,5.149 -8.162,9.024 -1.983,3.875 -2.974,8.007 -2.974,12.4 0,6.754 2.154,12.492 6.465,17.217 4.31,4.723 9.726,7.086 16.249,7.086 8.161,0 14.601,-3.522 19.322,-10.563 l 5.464,3.821 c -1.609,3.024 -3.562,5.514 -5.859,7.469 z"
           style="fill:none;stroke:#000000;stroke-opacity:1;stroke-width:2.8;stroke-linecap:butt;stroke-linejoin:miter;stroke-miterlimit:4;stroke-dasharray:none"
           id="path3358" /><path
           d="m 494.784,155.095 6.875,0 0,27.055 26.866,-27.055 9.822,0 -31.174,31.5 29.424,28.75 -10.099,0 -24.839,-24.269 0,47.519 -6.875,0 0,-83.5 z"
           style="fill:none;stroke:#000000;stroke-opacity:1;stroke-width:2.8;stroke-linecap:butt;stroke-linejoin:miter;stroke-miterlimit:4;stroke-dasharray:none"
           id="path3360" /><text
           transform="matrix(0.88888889,0,0,-1,547.0581,155.0947)"
           id="text3362"><tspan
             style="fill:#009900;fill-opacity:1;fill-rule:nonzero;stroke:none;font-family:Century Gothic;font-variant:normal;font-weight:normal;font-stretch:normal;font-size:113.4;writing-mode:lr;-inkscape-font-specification:CenturyGothic"
             x="0 98.8848"
             y="0"
             sodipodi:role="line"
             id="tspan3364">Go</tspan></text>
<path
           d="m 609.838,234.861 c -5.413,2.489 -11.186,3.734 -17.32,3.734 -7.578,0 -14.369,-1.874 -20.372,-5.621 -6.004,-3.748 -10.728,-8.945 -14.172,-15.59 -3.444,-6.646 -5.166,-13.826 -5.166,-21.543 0,-10.375 3.003,-19.513 9.009,-27.413 7.81,-10.264 18.41,-15.396 31.8,-15.396 11.027,0 19.83,3.704 26.41,11.113 6.58,7.408 9.902,17.413 9.969,30.012 l -31.188,0 0,-7.875 23.063,0 c -0.953,-7.539 -4.005,-13.674 -9.159,-18.404 -5.154,-4.731 -11.457,-7.096 -18.908,-7.096 -6.138,0 -11.785,1.578 -16.938,4.737 -5.155,3.158 -9.192,7.498 -12.114,13.019 -2.921,5.522 -4.381,11.348 -4.381,17.48 0,5.982 1.41,11.661 4.232,17.035 2.822,5.374 6.801,9.631 11.936,12.77 5.134,3.139 10.541,4.709 16.217,4.709 4.561,0 9.244,-1.154 14.051,-3.462 4.807,-2.307 9.229,-5.695 13.265,-10.163 l 5.611,5.98 c -5.15,5.494 -10.433,9.485 -15.845,11.974 z"
           style="fill:none;stroke:#009900;stroke-opacity:1;stroke-width:2.8;stroke-linecap:butt;stroke-linejoin:miter;stroke-miterlimit:4;stroke-dasharray:none"
           id="path3366" /><path
           d="m 647.422,206.77 c -4.931,-6.131 -7.397,-13.371 -7.397,-21.716 0,-8.421 2.605,-15.78 7.816,-22.076 5.211,-6.297 11.926,-9.446 20.146,-9.446 8.186,0 14.886,3.149 20.096,9.446 5.211,6.296 7.817,13.655 7.817,22.076 0,8.383 -2.466,15.64 -7.398,21.771 -5.424,6.721 -12.263,10.082 -20.515,10.082 -8.285,0 -15.141,-3.38 -20.565,-10.137 z m 35.281,-4.575 c 4.13,-4.766 6.197,-10.53 6.197,-17.291 0,-4.36 -0.939,-8.425 -2.816,-12.193 -1.876,-3.769 -4.411,-6.678 -7.604,-8.729 -3.193,-2.05 -6.699,-3.075 -10.518,-3.075 -3.819,0 -7.325,1.025 -10.518,3.075 -3.194,2.051 -5.728,4.96 -7.605,8.729 -1.877,3.768 -2.814,7.833 -2.814,12.193 0,6.761 2.058,12.525 6.173,17.291 4.115,4.766 9.036,7.15 14.764,7.15 5.696,0 10.609,-2.384 14.741,-7.15 z"
           style="fill:none;stroke:#009900;stroke-opacity:1;stroke-width:2.8;stroke-linecap:butt;stroke-linejoin:miter;stroke-miterlimit:4;stroke-dasharray:none"
           id="path3368" /><path
           sodipodi:type="arc"
           style="fill:url(#linearGradient4166);fill-opacity:1;fill-rule:evenodd;stroke:none"
           id="path4150"
           sodipodi:cx="406.66675"
           sodipodi:cy="495.98489"
           sodipodi:rx="7.9549513"
           sodipodi:ry="9.1602468"
           d="m 414.6217,495.98489 a 7.9549513,9.1602468 0 1 1 -15.9099,0 7.9549513,9.1602468 0 1 1 15.9099,0 z"
           transform="matrix(0.4775023,0,0,-0.42105264,123.18392,545.5471)" /><path
           sodipodi:type="arc"
           style="fill:url(#linearGradient4183);fill-opacity:1;fill-rule:evenodd;stroke:none"
           id="path4150-8"
           sodipodi:cx="406.66675"
           sodipodi:cy="495.98489"
           sodipodi:rx="7.9549513"
           sodipodi:ry="9.1602468"
           d="m 414.6217,495.98489 a 7.9549513,9.1602468 0 1 1 -15.9099,0 7.9549513,9.1602468 0 1 1 15.9099,0 z"
           transform="matrix(0.4775023,0,0,-0.42105264,190.7389,548.24701)" /><path
           sodipodi:type="arc"
           style="fill:url(#linearGradient4183-2);fill-opacity:1;fill-rule:evenodd;stroke:none"
           id="path4150-84"
           sodipodi:cx="406.66675"
           sodipodi:cy="495.98489"
           sodipodi:rx="7.9549513"
           sodipodi:ry="9.1602468"
           d="m 414.6217,495.98489 a 7.9549513,9.1602468 0 1 1 -15.9099,0 7.9549513,9.1602468 0 1 1 15.9099,0 z"
           transform="matrix(0.4775023,0,0,-0.42105264,139.05583,540.91881)" /><path
           sodipodi:type="arc"
           style="fill:url(#linearGradient4183-5);fill-opacity:1;fill-rule:evenodd;stroke:none"
           id="path4150-0"
           sodipodi:cx="406.66675"
           sodipodi:cy="495.98489"
           sodipodi:rx="7.9549513"
           sodipodi:ry="9.1602468"
           d="m 414.6217,495.98489 a 7.9549513,9.1602468 0 1 1 -15.9099,0 7.9549513,9.1602468 0 1 1 15.9099,0 z"
           transform="matrix(0.4775023,0,0,-0.42105264,129.02777,532.43352)" /><path
           sodipodi:type="arc"
           style="fill:url(#linearGradient4183-8);fill-opacity:1;fill-rule:evenodd;stroke:none"
           id="path4150-3"
           sodipodi:cx="406.66675"
           sodipodi:cy="495.98489"
           sodipodi:rx="7.9549513"
           sodipodi:ry="9.1602468"
           d="m 414.6217,495.98489 a 7.9549513,9.1602468 0 1 1 -15.9099,0 7.9549513,9.1602468 0 1 1 15.9099,0 z"
           transform="matrix(0.4775023,0,0,-0.42105264,123.24236,521.63408)" /><path
           sodipodi:type="arc"
           style="fill:url(#linearGradient4183-6);fill-opacity:1;fill-rule:evenodd;stroke:none"
           id="path4150-2"
           sodipodi:cx="406.66675"
           sodipodi:cy="495.98489"
           sodipodi:rx="7.9549513"
           sodipodi:ry="9.1602468"
           d="m 414.6217,495.98489 a 7.9549513,9.1602468 0 1 1 -15.9099,0 7.9549513,9.1602468 0 1 1 15.9099,0 z"
           transform="matrix(0.4775023,0,0,-0.42105264,193.82447,529.34796)" /><path
           sodipodi:type="arc"
           style="fill:url(#linearGradient4183-3);fill-opacity:1;fill-rule:evenodd;stroke:none"
           id="path4150-4"
           sodipodi:cx="406.66675"
           sodipodi:cy="495.98489"
           sodipodi:rx="7.9549513"
           sodipodi:ry="9.1602468"
           d="m 414.6217,495.98489 a 7.9549513,9.1602468 0 1 1 -15.9099,0 7.9549513,9.1602468 0 1 1 15.9099,0 z"
           transform="matrix(0.4775023,0,0,-0.42105264,139.44153,523.94824)" /><path
           sodipodi:type="arc"
           style="fill:url(#linearGradient4183-0);fill-opacity:1;fill-rule:evenodd;stroke:none"
           id="path4150-6"
           sodipodi:cx="406.66675"
           sodipodi:cy="495.98489"
           sodipodi:rx="7.9549513"
           sodipodi:ry="9.1602468"
           d="m 414.6217,495.98489 a 7.9549513,9.1602468 0 1 1 -15.9099,0 7.9549513,9.1602468 0 1 1 15.9099,0 z"
           transform="matrix(0.4775023,0,0,-0.42105264,187.26766,538.99034)" /><path
           sodipodi:type="arc"
           style="fill:url(#linearGradient4183-9);fill-opacity:1;fill-rule:evenodd;stroke:none"
           id="path4150-7"
           sodipodi:cx="406.66675"
           sodipodi:cy="495.98489"
           sodipodi:rx="7.9549513"
           sodipodi:ry="9.1602468"
           d="m 414.6217,495.98489 a 7.9549513,9.1602468 0 1 1 -15.9099,0 7.9549513,9.1602468 0 1 1 15.9099,0 z"
           transform="matrix(0.4775023,0,0,-0.42105264,179.16807,530.89074)" /><path
           sodipodi:type="arc"
           style="fill:url(#linearGradient4183-4);fill-opacity:1;fill-rule:evenodd;stroke:none"
           id="path4150-72"
           sodipodi:cx="406.66675"
           sodipodi:cy="495.98489"
           sodipodi:rx="7.9549513"
           sodipodi:ry="9.1602468"
           d="m 414.6217,495.98489 a 7.9549513,9.1602468 0 1 1 -15.9099,0 7.9549513,9.1602468 0 1 1 15.9099,0 z"
           transform="matrix(0.4775023,0,0,-0.42105264,174.92543,541.3045)" /><path
           sodipodi:type="arc"
           style="fill:url(#linearGradient4367);fill-opacity:1;fill-rule:evenodd;stroke:none"
           id="path4359"
           sodipodi:cx="593.86365"
           sodipodi:cy="398.86365"
           sodipodi:rx="64.772728"
           sodipodi:ry="10.227273"
           d="m 658.63638,398.86365 a 64.772728,10.227273 0 1 1 -129.54546,0 64.772728,10.227273 0 1 1 129.54546,0 z"
           transform="matrix(0.69474442,0.07807326,0.06589878,-0.75822507,18.05769,671.99114)" /><rect
           style="fill:#000000;fill-opacity:1;fill-rule:evenodd;stroke:none"
           id="rect4375"
           width="42.427032"
           height="2.6998954"
           x="369.50092"
           y="-219.84918"
           transform="scale(1,-1)" /><rect
           style="fill:#000000;fill-opacity:1;fill-rule:evenodd;stroke:none"
           id="rect4377"
           width="4.6284041"
           height="37.027233"
           x="388.78595"
           y="-256.87646"
           transform="scale(1,-1)" /><rect
           style="fill:#000000;fill-opacity:1;fill-rule:evenodd;stroke:none"
           id="rect4375-3"
           width="26.055801"
           height="0.90182781"
           x="159.1604"
           y="-450.74796"
           transform="matrix(0.76386302,-0.6453784,-0.55092695,-0.83455347,0,0)"
           ry="0" /><rect
           style="fill:#000000;fill-opacity:1;fill-rule:evenodd;stroke:none"
           id="rect4375-3-4"
           width="26.055786"
           height="0.90182406"
           x="-497.89597"
           y="57.722054"
           transform="matrix(-0.76386302,-0.6453784,0.55092697,-0.83455346,0,0)" /><path
           style="fill:none;stroke:#000000;stroke-width:0.66646326px;stroke-linecap:butt;stroke-linejoin:miter;stroke-opacity:1"
           d="m 376.36602,267.33171 29.71292,0"
           id="path4415"
           inkscape:connector-curvature="0" /></g></g></g></svg>