<?xml version="1.0" encoding="UTF-8" standalone="no"?>
<!-- Created with Inkscape (http://www.inkscape.org/) -->

<svg
   xmlns:osb="http://www.openswatchbook.org/uri/2009/osb"
   xmlns:dc="http://purl.org/dc/elements/1.1/"
   xmlns:cc="http://creativecommons.org/ns#"
   xmlns:rdf="http://www.w3.org/1999/02/22-rdf-syntax-ns#"
   xmlns:svg="http://www.w3.org/2000/svg"
   xmlns="http://www.w3.org/2000/svg"
   xmlns:sodipodi="http://sodipodi.sourceforge.net/DTD/sodipodi-0.dtd"
   xmlns:inkscape="http://www.inkscape.org/namespaces/inkscape"
   id="svg2985"
   version="1.1"
   inkscape:version="0.48.1 r9760"
   width="900"
   height="900"
   xml:space="preserve"
   sodipodi:docname="nduck.v104.ai"
   inkscape:export-filename="/home/mike/git/me/ddg/rpgday2.png"
   inkscape:export-xdpi="21.542776"
   inkscape:export-ydpi="21.542776"><metadata
     id="metadata2991"><rdf:RDF><cc:Work
         rdf:about=""><dc:format>image/svg+xml</dc:format><dc:type
           rdf:resource="http://purl.org/dc/dcmitype/StillImage" /><dc:title></dc:title></cc:Work></rdf:RDF></metadata><defs
     id="defs2989"><marker
       inkscape:stockid="Arrow1Lstart"
       orient="auto"
       refY="0.0"
       refX="0.0"
       id="Arrow1Lstart"
       style="overflow:visible"><path
         id="path6868"
         d="M 0.0,0.0 L 5.0,-5.0 L -12.5,0.0 L 5.0,5.0 L 0.0,0.0 z "
         style="fill-rule:evenodd;stroke:#000000;stroke-width:1.0pt;marker-start:none"
         transform="scale(0.8) translate(12.5,0)" /></marker><linearGradient
       id="linearGradient5391"
       osb:paint="solid"><stop
         style="stop-color:#000000;stop-opacity:1;"
         offset="0"
         id="stop5393" /></linearGradient><clipPath
       clipPathUnits="userSpaceOnUse"
       id="clipPath2999"><path
         d="M 0,720 720,720 720,0 0,0 0,720 z"
         id="path3001" /></clipPath><clipPath
       clipPathUnits="userSpaceOnUse"
       id="clipPath3009"><path
         d="m 200.978,431.179 c 0,83.87 67.976,151.846 151.846,151.846 83.864,0 151.867,-67.976 151.867,-151.846 0,-83.857 -68.003,-151.847 -151.867,-151.847 -83.87,0 -151.846,67.99 -151.846,151.847"
         id="path3011" /></clipPath><linearGradient
       x1="0"
       y1="0"
       x2="1"
       y2="0"
       gradientUnits="userSpaceOnUse"
       gradientTransform="matrix(38.754883,0,0,-38.754883,310.20703,323.5293)"
       spreadMethod="pad"
       id="linearGradient3045"><stop
         style="stop-opacity:1;stop-color:#b4d66f"
         offset="0"
         id="stop3047" /><stop
         style="stop-opacity:1;stop-color:#0db14b"
         offset="0.691011"
         id="stop3049" /><stop
         style="stop-opacity:1;stop-color:#0db14b"
         offset="0.691011"
         id="stop3051" /><stop
         style="stop-opacity:1;stop-color:#0db14b"
         offset="1"
         id="stop3053" /></linearGradient><linearGradient
       x1="0"
       y1="0"
       x2="1"
       y2="0"
       gradientUnits="userSpaceOnUse"
       gradientTransform="matrix(36.111328,0,0,-36.111328,359.84473,330.16602)"
       spreadMethod="pad"
       id="linearGradient3069"><stop
         style="stop-opacity:1;stop-color:#b4d66f"
         offset="0"
         id="stop3071" /><stop
         style="stop-opacity:1;stop-color:#0db14b"
         offset="0.691011"
         id="stop3073" /><stop
         style="stop-opacity:1;stop-color:#0db14b"
         offset="0.691011"
         id="stop3075" /><stop
         style="stop-opacity:1;stop-color:#0db14b"
         offset="1"
         id="stop3077" /></linearGradient><linearGradient
       x1="0"
       y1="0"
       x2="1"
       y2="0"
       gradientUnits="userSpaceOnUse"
       gradientTransform="matrix(24.898437,0,0,-24.898437,339.63672,325.53418)"
       spreadMethod="pad"
       id="linearGradient3093"><stop
         style="stop-opacity:1;stop-color:#73c063"
         offset="0"
         id="stop3095" /><stop
         style="stop-opacity:1;stop-color:#0db14b"
         offset="1"
         id="stop3097" /></linearGradient><filter
       id="filter5845"
       inkscape:label="Rough and glossy"
       inkscape:menu="Textures"
       inkscape:menu-tooltip="Crumpled glossy paper effect which can be used for pictures as for objects"
       color-interpolation-filters="sRGB"><feGaussianBlur
         id="feGaussianBlur5847"
         result="result6"
         stdDeviation="1.5" /><feComposite
         in2="result6"
         id="feComposite5849"
         operator="atop"
         in="SourceGraphic"
         result="result8" /><feComposite
         in2="SourceAlpha"
         id="feComposite5851"
         in="result8"
         operator="atop"
         result="fbSourceGraphic" /><feColorMatrix
         result="fbSourceGraphicAlpha"
         in="fbSourceGraphic"
         values="0 0 0 -1 0 0 0 0 -1 0 0 0 0 -1 0 0 0 0 1 0"
         id="feColorMatrix6845" /><feTurbulence
         id="feTurbulence6847"
         type="fractalNoise"
         numOctaves="7"
         baseFrequency="0.02"
         seed="55"
         result="result0"
         in="fbSourceGraphic" /><feDiffuseLighting
         id="feDiffuseLighting6849"
         surfaceScale="4"
         diffuseConstant="1"
         kernelUnitLength="1"
         result="result1"
         in="result0"><feDistantLight
           id="feDistantLight6851"
           azimuth="235"
           elevation="60" /></feDiffuseLighting><feSpecularLighting
         id="feSpecularLighting6853"
         in="result0"
         surfaceScale="3"
         specularConstant="1"
         specularExponent="25"
         kernelUnitLength="1"
         result="result3"><feDistantLight
           id="feDistantLight6855"
           azimuth="235"
           elevation="55" /></feSpecularLighting><feComposite
         id="feComposite6857"
         in2="fbSourceGraphic"
         in="result1"
         operator="arithmetic"
         k1="1"
         result="result2" /><feComposite
         id="feComposite6859"
         in2="result3"
         in="result2"
         operator="arithmetic"
         k2="1"
         k3="1"
         result="result4" /><feComposite
         id="feComposite6861"
         in2="fbSourceGraphicAlpha"
         operator="in"
         in="result4"
         result="fbSourceGraphic" /><feDisplacementMap
         id="feDisplacementMap6863"
         in2="result0"
         scale="7"
         yChannelSelector="G"
         xChannelSelector="R" /></filter><filter
       id="filter5853"
       inkscape:label="Tinfoil"
       inkscape:menu="Bumps"
       inkscape:menu-tooltip="Metallic foil effect combining two lighting types and variable crumple"
       color-interpolation-filters="sRGB"
       height="1.4"
       width="1.4"
       x="-0.2"
       y="-0.2"><feGaussianBlur
         id="feGaussianBlur5855"
         result="result6"
         stdDeviation="1.5" /><feComposite
         in2="result6"
         id="feComposite5857"
         operator="atop"
         in="SourceGraphic"
         result="result8" /><feComposite
         in2="SourceAlpha"
         id="feComposite5859"
         in="result8"
         operator="atop"
         result="fbSourceGraphic" /><feColorMatrix
         result="fbSourceGraphicAlpha"
         in="fbSourceGraphic"
         values="0 0 0 -1 0 0 0 0 -1 0 0 0 0 -1 0 0 0 0 1 0"
         id="feColorMatrix6401" /><feGaussianBlur
         id="feGaussianBlur6403"
         in="fbSourceGraphic"
         result="result14"
         stdDeviation="0.5" /><feFlood
         id="feFlood6405"
         in="result14"
         flood-color="rgb(127,126,123)"
         result="result15"
         flood-opacity="1" /><feTurbulence
         id="feTurbulence6407"
         type="fractalNoise"
         seed="25"
         baseFrequency="0.004 0.008"
         numOctaves="1"
         result="result5" /><feDisplacementMap
         id="feDisplacementMap6409"
         in2="result14"
         scale="100"
         xChannelSelector="R"
         in="result5"
         result="result8"
         yChannelSelector="B" /><feGaussianBlur
         id="feGaussianBlur6411"
         stdDeviation="0.5"
         result="result17" /><feSpecularLighting
         id="feSpecularLighting6413"
         specularExponent="40"
         specularConstant="1"
         surfaceScale="12"
         result="result2"
         lighting-color="rgb(254,218,71)"
         in="result17"><feDistantLight
           id="feDistantLight6415"
           elevation="70"
           azimuth="225" /></feSpecularLighting><feDiffuseLighting
         id="feDiffuseLighting6417"
         diffuseConstant="0.5"
         surfaceScale="50"
         in="result17"
         lighting-color="rgb(116,245,254)"
         result="result18"><feDistantLight
           id="feDistantLight6419"
           elevation="55"
           azimuth="225" /></feDiffuseLighting><feBlend
         id="feBlend6421"
         in2="fbSourceGraphic"
         result="result9"
         mode="screen" /><feComposite
         id="feComposite6423"
         in2="result9"
         k3="1"
         k2="1"
         in="result2"
         result="result11"
         operator="arithmetic" /><feComposite
         id="feComposite6425"
         in2="fbSourceGraphic"
         operator="in"
         result="result16" /><feBlend
         id="feBlend6427"
         in2="result16"
         mode="multiply"
         result="result19" /><feDisplacementMap
         id="feDisplacementMap6429"
         in2="result5"
         xChannelSelector="R"
         scale="0" /></filter><filter
       id="filter7525"
       inkscape:label="Torn edges"
       inkscape:menu-tooltip="Displace the outside of shapes and pictures without altering their content"
       inkscape:menu="Distort"
       height="1.4"
       width="1.4"
       x="-0.2"
       y="-0.2"
       color-interpolation-filters="sRGB"><feGaussianBlur
         id="feGaussianBlur7527"
         in="SourceGraphic"
         result="result14"
         stdDeviation="0.5" /><feFlood
         id="feFlood7529"
         in="result14"
         flood-color="rgb(127,126,123)"
         result="result15"
         flood-opacity="1" /><feTurbulence
         id="feTurbulence7531"
         type="fractalNoise"
         seed="25"
         baseFrequency="0.004 0.008"
         numOctaves="1"
         result="result5" /><feDisplacementMap
         id="feDisplacementMap7533"
         in2="result14"
         scale="100"
         xChannelSelector="R"
         in="result5"
         result="result8"
         yChannelSelector="B" /><feGaussianBlur
         id="feGaussianBlur7535"
         stdDeviation="0.5"
         result="result17" /><feSpecularLighting
         id="feSpecularLighting7537"
         specularExponent="40"
         specularConstant="1"
         surfaceScale="12"
         result="result2"
         lighting-color="rgb(254,218,71)"
         in="result17"><feDistantLight
           id="feDistantLight7539"
           elevation="70"
           azimuth="225" /></feSpecularLighting><feDiffuseLighting
         id="feDiffuseLighting7541"
         diffuseConstant="0.5"
         surfaceScale="50"
         in="result17"
         lighting-color="rgb(116,245,254)"
         result="result18"><feDistantLight
           id="feDistantLight7543"
           elevation="55"
           azimuth="225" /></feDiffuseLighting><feBlend
         id="feBlend7545"
         in2="SourceGraphic"
         result="result9"
         mode="screen" /><feComposite
         id="feComposite7547"
         in2="result9"
         k3="1"
         k2="1"
         in="result2"
         result="result11"
         operator="arithmetic" /><feComposite
         id="feComposite7549"
         in2="SourceGraphic"
         operator="in"
         result="result16" /><feBlend
         id="feBlend7551"
         in2="result16"
         mode="multiply"
         result="result19" /><feDisplacementMap
         id="feDisplacementMap7553"
         in2="result5"
         xChannelSelector="R"
         scale="0"
         result="fbSourceGraphic" /><feColorMatrix
         result="fbSourceGraphicAlpha"
         in="fbSourceGraphic"
         values="0 0 0 -1 0 0 0 0 -1 0 0 0 0 -1 0 0 0 0 1 0"
         id="feColorMatrix7555" /><feGaussianBlur
         id="feGaussianBlur7557"
         result="result6"
         stdDeviation="1.5"
         in="fbSourceGraphic" /><feComposite
         id="feComposite7559"
         in2="result6"
         operator="atop"
         in="fbSourceGraphic"
         result="result8" /><feComposite
         id="feComposite7561"
         in2="fbSourceGraphicAlpha"
         in="result8"
         operator="atop"
         result="fbSourceGraphic" /><feColorMatrix
         result="fbSourceGraphicAlpha"
         in="fbSourceGraphic"
         values="0 0 0 -1 0 0 0 0 -1 0 0 0 0 -1 0 0 0 0 1 0"
         id="feColorMatrix7563" /><feGaussianBlur
         id="feGaussianBlur7565"
         result="result6"
         stdDeviation="1.5"
         in="fbSourceGraphic" /><feComposite
         id="feComposite7567"
         in2="result6"
         operator="atop"
         in="fbSourceGraphic"
         result="result8" /><feComposite
         id="feComposite7569"
         in2="fbSourceGraphicAlpha"
         in="result8"
         operator="atop"
         result="fbSourceGraphic" /><feColorMatrix
         result="fbSourceGraphicAlpha"
         in="fbSourceGraphic"
         values="0 0 0 -1 0 0 0 0 -1 0 0 0 0 -1 0 0 0 0 1 0"
         id="feColorMatrix7665" /><feTurbulence
         id="feTurbulence7667"
         baseFrequency="0.05"
         numOctaves="5"
         type="fractalNoise"
         result="result91"
         in="fbSourceGraphic" /><feDisplacementMap
         id="feDisplacementMap7669"
         in2="result91"
         scale="25"
         result="result5"
         xChannelSelector="R"
         in="fbSourceGraphic" /><feComposite
         id="feComposite7671"
         in2="result5"
         in="fbSourceGraphic"
         operator="atop" /></filter></defs><sodipodi:namedview
     pagecolor="#ffffff"
     bordercolor="#666666"
     borderopacity="1"
     objecttolerance="10"
     gridtolerance="10"
     guidetolerance="10"
     inkscape:pageopacity="0"
     inkscape:pageshadow="2"
     inkscape:window-width="1366"
     inkscape:window-height="744"
     id="namedview2987"
     showgrid="false"
     inkscape:zoom="0.73333333"
     inkscape:cx="443.24745"
     inkscape:cy="395.45455"
     inkscape:window-x="0"
     inkscape:window-y="24"
     inkscape:window-maximized="1"
     inkscape:current-layer="g2995" /><g
     id="g2993"
     inkscape:groupmode="layer"
     inkscape:label="nduck.v104"
     transform="matrix(1.25,0,0,-1.25,0,900)"><g
       id="g2995"><path
         inkscape:connector-curvature="0"
         id="path3003"
         style="fill:#635210;fill-opacity:1;fill-rule:nonzero;stroke:none"
         d="m 197.70506,431.17901 c 0,85.67764 69.44107,155.11872 155.11871,155.11872 85.67151,0 155.14017,-69.44108 155.14017,-155.11872 0,-85.66436 -69.46866,-155.11974 -155.14017,-155.11974 -85.67764,0 -155.11871,69.45538 -155.11871,155.11974"
         inkscape:export-filename="/home/mike/git/me/ddg/rpgday2.png"
         inkscape:export-xdpi="47.416306"
         inkscape:export-ydpi="47.416306" /><g
         id="g3007"
         clip-path="url(#clipPath3009)"><path
           d="m 404.477,225.273 c -4.704,21.616 -31.999,70.561 -42.349,91.26 -10.343,20.699 -20.706,49.875 -15.996,68.701 0.847,3.418 -8.969,29.511 -6.139,31.35 21.957,14.335 27.754,-1.559 36.552,4.867 4.539,3.322 10.664,-2.734 12.25,2.762 5.64,19.756 -7.848,54.182 -22.894,69.234 -4.908,4.908 -12.448,7.985 -20.959,9.625 -3.26,4.471 -8.531,8.764 -15.996,12.729 -8.34,4.429 -26.427,10.281 -35.82,11.84 -6.494,1.066 -7.957,-0.752 -10.732,-1.21 2.584,-0.226 14.868,-6.296 17.267,-6.652 -2.399,-1.613 -9.427,0.075 -13.904,-1.934 -2.263,-1.019 -3.951,-4.902 -3.938,-6.734 12.825,1.292 32.827,0.035 44.639,-5.222 -9.406,-1.067 -23.7,-2.256 -29.853,-5.496 -17.876,-9.42 -25.757,-31.412 -21.061,-57.764 4.717,-26.339 25.416,-122.322 32.006,-154.315 6.59,-32.005 -14.123,-52.698 -27.289,-58.337 l 14.123,-0.951 -4.717,-10.356 c 16.939,-1.873 35.759,3.76 35.759,3.76 -3.767,-10.343 -29.169,-14.117 -29.169,-14.117 0,0 12.236,-3.752 31.992,3.774 19.756,7.526 31.985,12.229 31.985,12.229 l 9.42,-24.459 17.883,17.87 7.526,-18.82 c 0,0 14.11,4.71 9.414,26.366"
           style="fill:#cccdce;fill-opacity:1;fill-rule:nonzero;stroke:none"
           id="path3013"
           inkscape:connector-curvature="0" /><path
           d="m 408.605,229.396 c -4.696,21.635 -31.992,70.581 -42.348,91.28 -10.35,20.699 -20.699,49.875 -15.996,68.687 0.861,3.418 0.882,17.405 3.718,19.264 21.958,14.335 20.399,0.478 29.197,6.904 4.539,3.309 8.169,7.315 9.748,12.818 5.653,19.762 -7.834,54.181 -22.894,69.241 -4.901,4.901 -12.434,7.984 -20.938,9.611 -3.281,4.485 -8.552,8.778 -16.017,12.742 -14.068,7.479 -31.513,10.459 -47.667,7.527 2.584,-0.24 8.497,-5.578 10.883,-5.934 -3.609,-2.44 -13.193,-2.126 -13.132,-7.554 12.831,1.279 26.893,-0.752 38.719,-6.002 -9.406,-1.066 -18.156,-3.39 -24.309,-6.63 -17.882,-9.407 -22.586,-28.226 -17.882,-54.585 4.703,-26.353 25.416,-122.329 31.992,-154.322 6.583,-31.992 -14.11,-52.691 -27.289,-58.338 l 14.123,-0.936 -4.703,-10.37 c 16.925,-1.866 35.758,3.773 35.758,3.773 -3.766,-10.363 -29.182,-14.109 -29.182,-14.109 0,0 12.236,-3.774 32.006,3.773 19.762,7.52 31.992,12.216 31.992,12.216 l 9.406,-24.459 17.876,17.876 7.54,-18.819 c 0,0 14.109,4.71 9.399,26.346"
           style="fill:#ffffff;fill-opacity:1;fill-rule:nonzero;stroke:none"
           id="path3015"
           inkscape:connector-curvature="0" /><path
           d="m 300.42,445.459 c 0,5.455 4.423,9.885 9.892,9.885 5.455,0 9.871,-4.43 9.871,-9.885 0,-5.469 -4.416,-9.885 -9.871,-9.885 -5.469,0 -9.892,4.416 -9.892,9.885"
           style="fill:#b52a3f;fill-opacity:0.94117647;fill-rule:nonzero;stroke:none"
           id="path3017"
           inkscape:connector-curvature="0" /><path
           d="m 312.13,448.754 c 0,1.422 1.148,2.57 2.563,2.57 1.415,0 2.571,-1.148 2.571,-2.57 0,-1.415 -1.156,-2.57 -2.571,-2.57 -1.415,0 -2.563,1.155 -2.563,2.57"
           style="fill:#ffffff;fill-opacity:1;fill-rule:nonzero;stroke:none"
           id="path3019"
           inkscape:connector-curvature="0" /><path
           d="m 367.877,451.324 c 0,4.676 3.808,8.484 8.49,8.484 4.696,0 8.49,-3.808 8.49,-8.484 0,-4.703 -3.794,-8.504 -8.49,-8.504 -4.682,0 -8.49,3.801 -8.49,8.504"
           style="fill:#b52a3f;fill-opacity:0.94117647;fill-rule:nonzero;stroke:none"
           id="path3021"
           inkscape:connector-curvature="0" /><path
           d="m 377.939,454.141 c 0,1.216 0.992,2.201 2.202,2.201 1.223,0 2.194,-0.985 2.194,-2.201 0,-1.217 -0.971,-2.195 -2.194,-2.195 -1.21,0 -2.202,0.978 -2.202,2.195"
           style="fill:#ffffff;fill-opacity:1;fill-rule:nonzero;stroke:none"
           id="path3023"
           inkscape:connector-curvature="0" /><path
           d="m 314.39057,470.34104 c 0,0 -7.73375,2.64883 -14.50714,-2.55589 -6.77439,-5.20481 -6.07863,-9.81485 -6.07863,-9.81485 0,0 -4.6296,8.17356 5.18588,13.30747 9.81349,5.15484 15.39989,-0.93673 15.39989,-0.93673"
           style="fill:#b52a3f;fill-opacity:0.94117647;fill-rule:nonzero;stroke:none"
           id="path3025"
           inkscape:connector-curvature="0" /><path
           d="m 378.5112,475.11137 c 0,0 -6.07608,1.05226 -9.95952,-0.40903 -7.98659,-3.02363 -8.88942,-7.36662 -8.88942,-7.36662 0,0 -1.71878,8.94024 9.16287,10.97889 5.88718,1.09098 9.68607,-3.20324 9.68607,-3.20324"
           style="fill:#b52a30;fill-opacity:1;fill-rule:nonzero;stroke:none"
           id="path3027"
           inkscape:connector-curvature="0" /></g><path
         inkscape:connector-curvature="0"
         id="path3029"
         style="fill:none;stroke:#ffffff;stroke-width:20.70800018;stroke-linecap:butt;stroke-linejoin:miter;stroke-miterlimit:4;stroke-opacity:1;stroke-dasharray:none"
         d="m 205.192,430.01 c 0,82.195 66.62,148.804 148.808,148.804 82.188,0 148.825,-66.609 148.825,-148.804 0,-82.182 -66.637,-148.819 -148.825,-148.819 -82.188,0 -148.808,66.637 -148.808,148.819 z" /><path
         inkscape:connector-curvature="0"
         id="path3101"
         style="fill:none;stroke:#b52a30;stroke-width:16.45599999999999952;stroke-linecap:butt;stroke-linejoin:miter;stroke-miterlimit:4;stroke-opacity:1;stroke-dasharray:none;fill-opacity:1;stroke-dashoffset:0;marker-start:none;filter:url(#filter7525)"
         d="m 201.596,429.552 c 0,83.87 67.987,151.853 151.843,151.853 83.857,0 151.847,-67.983 151.847,-151.853 0,-83.864 -67.99,-151.847 -151.847,-151.847 -83.856,0 -151.843,67.983 -151.843,151.847 z" /><path
         inkscape:connector-curvature="0"
         id="path3031"
         style="fill:#fdd204;fill-opacity:1;fill-rule:nonzero;stroke:none"
         d="m 338.599,407.52 c 0.998,6.056 16.652,17.513 27.733,18.21 11.102,0.698 14.561,0.541 23.823,2.755 9.263,2.215 33.141,3.362 39.751,6.418 6.617,3.049 34.638,-1.517 14.882,-12.53 -8.552,-4.785 -31.589,-8.769 -48.043,-13.678 -16.447,-4.922 -26.414,4.703 -31.883,-3.39 -4.341,-6.426 -0.882,-5.631 18.758,-7.463 26.537,-2.454 51.981,8.749 54.783,1.1 2.817,-7.649 -22.811,-14.006 -38.404,-14.314 -15.586,-0.294 -47.011,0.702 -51.707,3.983 -4.71,3.282 -11.006,10.924 -9.693,18.909"
         sodipodi:nodetypes="cccccccccccc" /><g
         id="g3033"><g
           id="g3035"><g
             id="g3041"><g
               id="g3043"><path
                 inkscape:connector-curvature="0"
                 id="path3055"
                 style="fill:url(#linearGradient3045);stroke:none"
                 d="m 347.15,332.338 c 0,0 -36.141,19.277 -36.743,11.457 -0.608,-7.834 0,-39.758 4.211,-42.178 4.225,-2.406 34.344,15.661 34.344,15.661 l -1.812,15.06 z" /></g></g></g></g><g
         id="g3057"><g
           id="g3059"><g
             id="g3065"><g
               id="g3067"><path
                 inkscape:connector-curvature="0"
                 id="path3079"
                 style="fill:url(#linearGradient3069);stroke:none"
                 d="m 361.007,333.555 c 0,0 24.705,18.675 30.126,17.472 5.421,-1.216 6.624,-39.764 1.798,-41.589 -4.82,-1.792 -33.086,9.789 -33.086,9.789 l 1.162,14.328 z" /></g></g></g></g><g
         id="g3081"><g
           id="g3083"><g
             id="g3089"><g
               id="g3091"><path
                 inkscape:connector-curvature="0"
                 id="path3099"
                 style="fill:url(#linearGradient3093);stroke:none"
                 d="m 339.925,332.338 c 0,-12.64 -1.805,-18.074 3.616,-19.271 5.421,-1.21 15.654,0 19.277,2.407 3.61,2.413 0.595,18.669 -0.608,21.697 -1.203,3.001 -22.285,0.588 -22.285,-4.833" /></g></g></g></g><text
         id="text3103"
         transform="scale(0.94280904,-1.0606602)"
         x="24.083879"
         y="-146.22469"
         style="font-size:11.31370831px"><tspan
           id="tspan3105"
           sodipodi:role="line"
           y="-146.22469"
           x="24.083879 103.6283 168.63235 237.80606"
           style="font-size:106.91454315px;font-variant:normal;font-weight:normal;font-stretch:normal;writing-mode:lr-tb;fill:#000000;fill-opacity:1;fill-rule:nonzero;stroke:none;font-family:Century Gothic;-inkscape-font-specification:CenturyGothic">Duck</tspan></text>
<path
         inkscape:connector-curvature="0"
         id="path3107"
         style="fill:none;stroke:#000000;stroke-width:2.79999995;stroke-linecap:butt;stroke-linejoin:miter;stroke-miterlimit:4;stroke-opacity:1;stroke-dasharray:none"
         d="m 54.56,155.095 c 9.025,0 16.041,1.475 21.047,4.428 5.006,2.954 9.075,7.53 12.21,13.731 3.135,6.2 4.702,13.379 4.702,21.535 0,9.448 -1.977,17.587 -5.933,24.415 -3.955,6.828 -9.445,11.626 -16.468,14.394 -4.891,1.956 -12.752,2.934 -23.582,2.934 l -15.017,0 0,-81.437 23.041,0 z m -16.103,73.437 5.123,0 c 10.41,0 17.881,-0.774 22.415,-2.322 6.042,-2.064 10.755,-5.881 14.137,-11.447 3.383,-5.567 5.075,-12.277 5.075,-20.129 0,-7.485 -1.561,-13.816 -4.68,-18.995 -3.12,-5.18 -7.406,-8.765 -12.858,-10.755 -3.876,-1.402 -10.822,-2.102 -20.837,-2.102 l -8.375,0 0,65.75 z" /><path
         inkscape:connector-curvature="0"
         id="path3109"
         style="fill:none;stroke:#000000;stroke-width:2.79999995;stroke-linecap:butt;stroke-linejoin:miter;stroke-miterlimit:4;stroke-opacity:1;stroke-dasharray:none"
         d="m 104.528,186.321 c 0,-8.566 0.862,-14.982 2.585,-19.247 1.723,-4.265 4.333,-7.589 7.829,-9.97 3.496,-2.38 7.854,-3.572 13.073,-3.572 5.218,0 9.56,1.192 13.023,3.572 3.463,2.381 6.057,5.677 7.78,9.887 1.723,4.209 2.585,10.468 2.585,18.777 l 0,29.577 -7.062,0 0,-28.155 c 0,-7.537 -0.346,-12.469 -1.035,-14.796 -1.02,-3.4 -2.869,-6.143 -5.548,-8.231 -2.68,-2.088 -5.942,-3.131 -9.787,-3.131 -3.846,0 -7.158,1.072 -9.936,3.214 -2.777,2.143 -4.659,5.062 -5.645,8.757 -0.659,2.586 -0.987,7.315 -0.987,14.187 l 0,28.155 -6.875,0 0,-29.024 z" /><path
         inkscape:connector-curvature="0"
         id="path3111"
         style="fill:none;stroke:#000000;stroke-width:2.79999995;stroke-linecap:butt;stroke-linejoin:miter;stroke-miterlimit:4;stroke-opacity:1;stroke-dasharray:none"
         d="m 212.822,210.322 c -2.298,1.955 -5.095,3.541 -8.394,4.759 -3.299,1.217 -6.72,1.826 -10.265,1.826 -5.645,0 -10.749,-1.404 -15.311,-4.211 -4.563,-2.806 -8.148,-6.713 -10.757,-11.717 -2.61,-5.003 -3.914,-10.423 -3.914,-16.258 0,-8.679 2.789,-16.047 8.369,-22.104 5.58,-6.056 12.603,-9.085 21.071,-9.085 5.514,0 10.429,1.194 14.745,3.578 4.317,2.385 7.754,5.742 10.315,10.069 l -5.464,4.041 c -4.983,-7.042 -11.406,-10.563 -19.273,-10.563 -4.294,0 -8.17,1.071 -11.628,3.211 -3.458,2.141 -6.178,5.149 -8.161,9.024 -1.983,3.875 -2.974,8.007 -2.974,12.4 0,6.754 2.154,12.492 6.465,17.217 4.31,4.723 9.726,7.086 16.249,7.086 8.161,0 14.601,-3.522 19.322,-10.563 l 5.464,3.821 c -1.609,3.024 -3.562,5.514 -5.859,7.469 z" /><path
         inkscape:connector-curvature="0"
         id="path3113"
         style="fill:none;stroke:#000000;stroke-width:2.79999995;stroke-linecap:butt;stroke-linejoin:miter;stroke-miterlimit:4;stroke-opacity:1;stroke-dasharray:none"
         d="m 231.833,155.095 6.875,0 0,27.055 26.866,-27.055 9.822,0 -31.174,31.5 29.424,28.75 -10.099,0 -24.839,-24.269 0,47.519 -6.875,0 0,-83.5 z" /><text
         id="text3115"
         transform="scale(0.94280904,-1.0606602)"
         x="302.98575"
         y="-146.22469"
         style="font-size:11.31370831px"><tspan
           id="tspan3117"
           sodipodi:role="line"
           y="-146.22469"
           x="302.98575 382.53015 447.53421 516.70795"
           style="font-size:106.91454315px;font-variant:normal;font-weight:normal;font-stretch:normal;writing-mode:lr-tb;fill:#000000;fill-opacity:1;fill-rule:nonzero;stroke:none;font-family:Century Gothic;-inkscape-font-specification:CenturyGothic">Duck</tspan></text>
<path
         inkscape:connector-curvature="0"
         id="path3119"
         style="fill:none;stroke:#000000;stroke-width:2.79999995;stroke-linecap:butt;stroke-linejoin:miter;stroke-miterlimit:4;stroke-opacity:1;stroke-dasharray:none"
         d="m 317.511,155.095 c 9.026,0 16.041,1.475 21.047,4.428 5.006,2.954 9.075,7.53 12.21,13.731 3.135,6.2 4.702,13.379 4.702,21.535 0,9.448 -1.977,17.587 -5.932,24.415 -3.955,6.828 -9.446,11.626 -16.469,14.394 -4.891,1.956 -12.752,2.934 -23.582,2.934 l -15.017,0 0,-81.437 23.041,0 z m -16.103,73.437 5.123,0 c 10.41,0 17.882,-0.774 22.415,-2.322 6.042,-2.064 10.755,-5.881 14.137,-11.447 3.383,-5.567 5.075,-12.277 5.075,-20.129 0,-7.485 -1.561,-13.816 -4.68,-18.995 -3.12,-5.18 -7.406,-8.765 -12.857,-10.755 -3.876,-1.402 -10.823,-2.102 -20.838,-2.102 l -8.375,0 0,65.75 z" /><path
         inkscape:connector-curvature="0"
         id="path3121"
         style="fill:none;stroke:#000000;stroke-width:2.79999995;stroke-linecap:butt;stroke-linejoin:miter;stroke-miterlimit:4;stroke-opacity:1;stroke-dasharray:none"
         d="m 367.479,186.321 c 0,-8.566 0.862,-14.982 2.585,-19.247 1.723,-4.265 4.333,-7.589 7.83,-9.97 3.496,-2.38 7.853,-3.572 13.072,-3.572 5.219,0 9.56,1.192 13.023,3.572 3.463,2.381 6.057,5.677 7.781,9.887 1.722,4.209 2.584,10.468 2.584,18.777 l 0,29.577 -7.062,0 0,-28.155 c 0,-7.537 -0.346,-12.469 -1.035,-14.796 -1.02,-3.4 -2.869,-6.143 -5.548,-8.231 -2.68,-2.088 -5.941,-3.131 -9.787,-3.131 -3.846,0 -7.158,1.072 -9.936,3.214 -2.777,2.143 -4.659,5.062 -5.645,8.757 -0.658,2.586 -0.987,7.315 -0.987,14.187 l 0,28.155 -6.875,0 0,-29.024 z" /><path
         inkscape:connector-curvature="0"
         id="path3123"
         style="fill:none;stroke:#000000;stroke-width:2.79999995;stroke-linecap:butt;stroke-linejoin:miter;stroke-miterlimit:4;stroke-opacity:1;stroke-dasharray:none"
         d="m 475.773,210.322 c -2.297,1.955 -5.095,3.541 -8.394,4.759 -3.299,1.217 -6.72,1.826 -10.265,1.826 -5.645,0 -10.749,-1.404 -15.311,-4.211 -4.563,-2.806 -8.148,-6.713 -10.757,-11.717 -2.609,-5.003 -3.914,-10.423 -3.914,-16.258 0,-8.679 2.789,-16.047 8.369,-22.104 5.58,-6.056 12.603,-9.085 21.071,-9.085 5.514,0 10.429,1.194 14.745,3.578 4.317,2.385 7.754,5.742 10.315,10.069 l -5.464,4.041 c -4.982,-7.042 -11.406,-10.563 -19.272,-10.563 -4.294,0 -8.17,1.071 -11.628,3.211 -3.458,2.141 -6.179,5.149 -8.162,9.024 -1.983,3.875 -2.974,8.007 -2.974,12.4 0,6.754 2.154,12.492 6.465,17.217 4.31,4.723 9.726,7.086 16.249,7.086 8.161,0 14.601,-3.522 19.322,-10.563 l 5.464,3.821 c -1.609,3.024 -3.562,5.514 -5.859,7.469 z" /><path
         inkscape:connector-curvature="0"
         id="path3125"
         style="fill:none;stroke:#000000;stroke-width:2.79999995;stroke-linecap:butt;stroke-linejoin:miter;stroke-miterlimit:4;stroke-opacity:1;stroke-dasharray:none"
         d="m 494.784,155.095 6.875,0 0,27.055 26.866,-27.055 9.822,0 -31.174,31.5 29.424,28.75 -10.099,0 -24.839,-24.269 0,47.519 -6.875,0 0,-83.5 z" /><text
         id="text3127"
         transform="scale(0.94280904,-1.0606602)"
         x="580.24274"
         y="-146.22469"
         style="font-size:11.31370831px"><tspan
           id="tspan3129"
           sodipodi:role="line"
           y="-146.22469"
           x="580.24274 673.47223"
           style="font-size:106.91454315px;font-variant:normal;font-weight:normal;font-stretch:normal;writing-mode:lr-tb;fill:#009900;fill-opacity:1;fill-rule:nonzero;stroke:none;font-family:Century Gothic;-inkscape-font-specification:CenturyGothic">Go</tspan></text>
<path
         inkscape:connector-curvature="0"
         id="path3131"
         style="fill:none;stroke:#009900;stroke-width:2.79999995;stroke-linecap:butt;stroke-linejoin:miter;stroke-miterlimit:4;stroke-opacity:1;stroke-dasharray:none"
         d="m 609.838,234.861 c -5.413,2.489 -11.186,3.734 -17.32,3.734 -7.578,0 -14.369,-1.874 -20.372,-5.621 -6.004,-3.748 -10.728,-8.945 -14.172,-15.59 -3.444,-6.646 -5.166,-13.826 -5.166,-21.543 0,-10.375 3.003,-19.513 9.009,-27.413 7.81,-10.264 18.41,-15.396 31.8,-15.396 11.027,0 19.83,3.704 26.41,11.113 6.58,7.408 9.902,17.413 9.969,30.012 l -31.188,0 0,-7.875 23.063,0 c -0.953,-7.539 -4.005,-13.674 -9.159,-18.404 -5.154,-4.731 -11.457,-7.096 -18.908,-7.096 -6.138,0 -11.785,1.578 -16.938,4.737 -5.155,3.158 -9.192,7.498 -12.114,13.019 -2.921,5.522 -4.381,11.348 -4.381,17.48 0,5.982 1.41,11.661 4.232,17.035 2.822,5.374 6.801,9.631 11.936,12.77 5.134,3.139 10.541,4.709 16.217,4.709 4.561,0 9.244,-1.154 14.051,-3.462 4.807,-2.307 9.229,-5.695 13.265,-10.163 l 5.611,5.98 c -5.15,5.494 -10.433,9.485 -15.845,11.974 z" /><path
         inkscape:connector-curvature="0"
         id="path3133"
         style="fill:none;stroke:#009900;stroke-width:2.79999995;stroke-linecap:butt;stroke-linejoin:miter;stroke-miterlimit:4;stroke-opacity:1;stroke-dasharray:none"
         d="m 647.422,206.77 c -4.931,-6.131 -7.397,-13.371 -7.397,-21.716 0,-8.421 2.605,-15.78 7.816,-22.076 5.211,-6.297 11.926,-9.446 20.146,-9.446 8.186,0 14.886,3.149 20.096,9.446 5.211,6.296 7.817,13.655 7.817,22.076 0,8.383 -2.466,15.64 -7.398,21.771 -5.424,6.721 -12.263,10.082 -20.515,10.082 -8.285,0 -15.141,-3.38 -20.565,-10.137 z m 35.281,-4.575 c 4.13,-4.766 6.197,-10.53 6.197,-17.291 0,-4.36 -0.939,-8.425 -2.816,-12.193 -1.876,-3.769 -4.411,-6.678 -7.604,-8.729 -3.193,-2.05 -6.699,-3.075 -10.518,-3.075 -3.819,0 -7.325,1.025 -10.518,3.075 -3.194,2.051 -5.728,4.96 -7.605,8.729 -1.877,3.768 -2.814,7.833 -2.814,12.193 0,6.761 2.058,12.525 6.173,17.291 4.115,4.766 9.036,7.15 14.764,7.15 5.696,0 10.609,-2.384 14.741,-7.15 z" /></g></g></svg>