<?xml version="1.0" encoding="UTF-8" standalone="no"?>
<!-- Created with Inkscape (http://www.inkscape.org/) -->

<svg
   xmlns:dc="http://purl.org/dc/elements/1.1/"
   xmlns:cc="http://creativecommons.org/ns#"
   xmlns:rdf="http://www.w3.org/1999/02/22-rdf-syntax-ns#"
   xmlns:svg="http://www.w3.org/2000/svg"
   xmlns="http://www.w3.org/2000/svg"
   xmlns:sodipodi="http://sodipodi.sourceforge.net/DTD/sodipodi-0.dtd"
   xmlns:inkscape="http://www.inkscape.org/namespaces/inkscape"
   width="128"
   height="128"
   id="svg2589"
   sodipodi:version="0.32"
   inkscape:version="0.48.1 r9760"
   version="1.0"
   sodipodi:docname="ubuntu-power-wrench-horiz.svg"
   inkscape:output_extension="org.inkscape.output.svg.inkscape">
  <defs
     id="defs2591">
    <inkscape:perspective
       sodipodi:type="inkscape:persp3d"
       inkscape:vp_x="0 : 64 : 1"
       inkscape:vp_y="0 : 1000 : 0"
       inkscape:vp_z="128 : 64 : 1"
       inkscape:persp3d-origin="64 : 42.666667 : 1"
       id="perspective10" />
  </defs>
  <sodipodi:namedview
     id="base"
     pagecolor="#000000"
     bordercolor="#666666"
     borderopacity="1.0"
     inkscape:pageopacity="0"
     inkscape:pageshadow="2"
     inkscape:zoom="5.6568542"
     inkscape:cx="52.455412"
     inkscape:cy="78.5"
     inkscape:current-layer="g3843"
     showgrid="true"
     inkscape:document-units="px"
     inkscape:grid-bbox="true"
     inkscape:window-width="1366"
     inkscape:window-height="744"
     inkscape:window-x="0"
     inkscape:window-y="24"
     inkscape:window-maximized="1" />
  <metadata
     id="metadata2594">
    <rdf:RDF>
      <cc:Work
         rdf:about="">
        <dc:format>image/svg+xml</dc:format>
        <dc:type
           rdf:resource="http://purl.org/dc/dcmitype/StillImage" />
        <dc:title></dc:title>
      </cc:Work>
    </rdf:RDF>
  </metadata>
  <g
     id="layer1"
     inkscape:label="Layer 1"
     inkscape:groupmode="layer">
    <path
       style="fill:#dd4814;fill-opacity:1;fill-rule:nonzero;stroke:none"
       d="M 63.6575,7.6865 C 32.36625,7.6865 7,33.05275 7,64.34425 7,95.63375 32.36625,121 63.6575,121 94.94875,121 120.315,95.63375 120.315,64.34425 120.315,33.05275 94.94875,7.6865 63.6575,7.6865"
       id="path28" />
    <g
       id="g3819"
       transform="matrix(0.57862557,-0.80101102,0.81559331,0.59917983,-28.564047,80.417293)">
      <g
         id="g3843"
         transform="matrix(0.01854687,2.2562328,-2.3666445,-0.01854687,189.34974,-57.519555)">
        <rect
           style="fill:#ffffff;fill-opacity:1;fill-rule:evenodd;stroke:none"
           id="rect3020"
           width="12.5"
           height="54.5"
           x="-18.783075"
           y="-134.39029"
           ry="5"
           rx="2.5"
           transform="matrix(-0.80046497,0.59937954,-0.59937954,-0.80046497,0,0)" />
        <path
           sodipodi:type="arc"
           style="fill:#ffffff;fill-opacity:1;stroke:none"
           id="path3798"
           sodipodi:cx="52.5"
           sodipodi:cy="53"
           sodipodi:rx="15.5"
           sodipodi:ry="15.5"
           d="M 68,53 C 68,61.560414 61.060414,68.5 52.5,68.5 43.939586,68.5 37,61.560414 37,53 37,44.439586 43.939586,37.5 52.5,37.5 61.060414,37.5 68,44.439586 68,53 z"
           transform="translate(1.3155933,-2.5786256)" />
        <rect
           style="fill:#dd4814;fill-opacity:1;stroke:none"
           id="rect3794"
           width="21.969158"
           height="9.0126352"
           x="-75.349411"
           y="7.7970042"
           rx="0"
           ry="0"
           transform="matrix(-0.59998591,-0.80001057,0.80017262,-0.59976978,0,0)" />
        <path
           sodipodi:type="star"
           style="fill:#dd4814;fill-opacity:1;stroke:none"
           id="path3848"
           sodipodi:sides="5"
           sodipodi:cx="51.972347"
           sodipodi:cy="66.481712"
           sodipodi:r1="24.397745"
           sodipodi:r2="24.285181"
           sodipodi:arg1="1.5852881"
           sodipodi:arg2="2.7663777"
           inkscape:flatsided="false"
           inkscape:rounded="0"
           inkscape:randomized="0"
           d="M 51.618793,90.876896 29.376714,75.381564 28.661895,73.683989 36.52565,47.742193 l 1.3936,-1.204412 27.102147,-0.53758 1.576111,0.953207 8.886292,25.609553 -0.419509,1.793528 -21.610116,16.365153 z"
           transform="matrix(0.15672638,-0.11119009,0.07541616,0.10081978,41.4207,51.373732)"
           inkscape:transform-center-x="0.048514311"
           inkscape:transform-center-y="0.64729993" />
      </g>
    </g>
  </g>
</svg>
